<svg width="48" height="48" viewBox="0 0 48 48" fill="none" xmlns="http://www.w3.org/2000/svg">
<g clip-path="url(#clip0_21_26)">
<path d="M48 0H0V48H48V0Z" fill="#F7DF1E"/>
<path d="M32.2438 37.5002C33.2107 39.0789 34.4686 40.2392 36.6933 40.2392C38.5623 40.2392 39.7562 39.3052 39.7562 38.0145C39.7562 36.4678 38.5295 35.92 36.4724 35.0202L35.3448 34.5364C32.0899 33.1497 29.9276 31.4126 29.9276 27.7402C29.9276 24.3573 32.5051 21.7821 36.5333 21.7821C39.4011 21.7821 41.4629 22.7802 42.9486 25.3935L39.4362 27.6488C38.6629 26.2621 37.8286 25.7158 36.5333 25.7158C35.2122 25.7158 34.3749 26.5539 34.3749 27.6488C34.3749 29.0019 35.213 29.5497 37.1482 30.3878L38.2758 30.8709C42.1082 32.5143 44.272 34.1897 44.272 37.9566C44.272 42.0175 41.0819 44.2423 36.7977 44.2423C32.6088 44.2423 29.9025 42.2461 28.5783 39.6297L32.2438 37.5002ZM16.3101 37.8911C17.0187 39.1482 17.6632 40.2111 19.2129 40.2111C20.6949 40.2111 21.6297 39.6312 21.6297 37.3768V22.0396H26.1402V37.4377C26.1402 42.1082 23.4019 44.2339 19.4049 44.2339C15.7935 44.2339 13.7021 42.365 12.6385 40.1139L16.3101 37.8911Z" fill="black"/>
</g>
<defs>
<clipPath id="clip0_21_26">
<rect width="48" height="48" fill="white"/>
</clipPath>
</defs>
</svg>
