<svg width="171" height="48" viewBox="0 0 171 48" fill="none" xmlns="http://www.w3.org/2000/svg">
<path d="M157.234 17.0327C156.82 17.0327 156.418 17.1182 156.061 17.3197L144.792 23.8278C144.063 24.2478 143.619 25.0416 143.619 25.8856V38.8784C143.619 39.7221 144.063 40.5146 144.792 40.9359L147.735 42.6319C149.165 43.3369 149.692 43.3256 150.343 43.3256C152.46 43.3256 153.669 42.041 153.669 39.8082V26.99C153.669 26.8088 153.512 26.6791 153.334 26.6791H151.922C151.741 26.6791 151.587 26.8121 151.587 26.99V39.8149C151.587 40.8046 150.556 41.8002 148.884 40.9635L145.824 39.1691C145.716 39.1102 145.633 39.0028 145.633 38.8821V25.8893C145.633 25.7662 145.715 25.6405 145.824 25.5783L157.07 19.0936C157.176 19.033 157.301 19.033 157.405 19.0936L168.651 25.5783C168.758 25.6425 168.842 25.7622 168.842 25.8893V38.8821C168.842 39.0061 168.78 39.1332 168.675 39.193L157.405 45.6778C157.306 45.7353 157.173 45.7353 157.07 45.6778L154.175 43.9552C154.089 43.9046 153.971 43.9086 153.888 43.9552C153.089 44.4081 152.939 44.4606 152.19 44.7207C152.005 44.7849 151.724 44.885 152.285 45.1996L156.066 47.4277C156.426 47.6358 156.827 47.7386 157.238 47.7386C157.656 47.7386 158.051 47.6388 158.411 47.4277L169.68 40.9429C170.41 40.5186 170.853 39.7291 170.853 38.8854V25.8926C170.853 25.0486 170.41 24.2564 169.68 23.8348L158.411 17.3267C158.058 17.1252 157.653 17.0397 157.238 17.0397L157.234 17.0327ZM160.249 26.3169C157.04 26.3169 155.129 27.6827 155.129 29.9537C155.129 32.4146 157.026 33.0943 160.106 33.399C163.79 33.7598 164.078 34.3008 164.078 35.0261C164.078 36.2842 163.075 36.8206 160.704 36.8206C157.726 36.8206 157.071 36.077 156.852 34.5925C156.826 34.4335 156.703 34.3055 156.541 34.3055H155.077C154.989 34.3074 154.905 34.3434 154.843 34.4057C154.78 34.4681 154.745 34.5522 154.743 34.6404C154.743 36.5369 155.774 38.7797 160.701 38.7797C164.267 38.7797 166.323 37.3829 166.323 34.9274C166.323 32.4997 164.662 31.8436 161.203 31.3857C157.711 30.9201 157.375 30.6973 157.375 29.8782C157.375 29.2025 157.657 28.2986 160.246 28.2986C162.558 28.2986 163.413 28.7974 163.763 30.3564C163.794 30.5028 163.923 30.6225 164.074 30.6225H165.538C165.627 30.6225 165.714 30.5673 165.777 30.5028C165.838 30.4339 165.881 30.3564 165.873 30.2633C165.647 27.5783 163.856 26.3153 160.25 26.3153L160.249 26.3169Z" fill="#83CD29"/>
<path d="M90.9798 0.000434933C90.8539 0.000662212 90.7302 0.0336703 90.621 0.0962099C90.5123 0.159817 90.422 0.250647 90.3591 0.359751C90.2962 0.468855 90.2627 0.592469 90.2621 0.718415V19.0227C90.2621 19.2023 90.1783 19.3633 90.0227 19.4534C89.9464 19.4979 89.8597 19.5213 89.7715 19.5213C89.6832 19.5213 89.5965 19.4979 89.5202 19.4534L86.5292 17.7308C86.3111 17.6045 86.0635 17.5381 85.8114 17.5381C85.5594 17.5381 85.3118 17.6045 85.0936 17.7308L73.1543 24.6216C72.7081 24.879 72.436 25.3745 72.436 25.8896V39.6716C72.4357 39.9238 72.5019 40.1716 72.6279 40.39C72.754 40.6085 72.9355 40.7898 73.154 40.9156L85.0936 47.8068C85.3117 47.9333 85.5593 48 85.8114 48C86.0636 48 86.3112 47.9333 86.5292 47.8068L98.4689 40.9156C98.6874 40.7898 98.8689 40.6085 98.9949 40.39C99.121 40.1716 99.1872 39.9238 99.1868 39.6716V5.31229C99.1868 4.78952 98.9015 4.299 98.4453 4.04427L91.3389 0.0719336C91.2272 0.00974639 91.1035 -0.00122782 90.9798 0.000102385V0.000434933ZM14.1736 17.204C13.9458 17.2133 13.7319 17.2529 13.5274 17.3716L1.58814 24.2624C1.36942 24.3881 1.18783 24.5693 1.0618 24.7878C0.935759 25.0063 0.869758 25.2543 0.870489 25.5065L0.894766 44.0027C0.894766 44.2601 1.02779 44.4989 1.25392 44.6246C1.47573 44.7576 1.75075 44.7576 1.97157 44.6246L9.05393 40.5568C9.50288 40.2908 9.79552 39.8265 9.79552 39.3131V30.675C9.79552 30.1596 10.0666 29.6874 10.5138 29.4313L13.5288 27.6847C13.7466 27.558 13.9944 27.4919 14.2464 27.4932C14.4985 27.4917 14.7465 27.5578 14.9644 27.6847L17.978 29.4303C18.4246 29.6864 18.6956 30.1592 18.6956 30.674V39.3117C18.6956 39.8259 18.9949 40.2928 19.4372 40.5555L26.5196 44.6233C26.7424 44.7563 27.0167 44.7563 27.2372 44.6233C27.4567 44.4969 27.5964 44.2585 27.5964 44.0014L27.6203 25.5058C27.6217 25.2535 27.556 25.0053 27.4299 24.7867C27.3038 24.568 27.1218 24.3869 26.9027 24.2618L14.9634 17.3713C14.7615 17.2529 14.5467 17.213 14.3172 17.2037H14.1742L14.1736 17.204ZM121.463 17.3716C121.211 17.3709 120.963 17.437 120.745 17.5632L108.805 24.4543C108.36 24.712 108.087 25.1833 108.087 25.6981V39.48C108.087 39.9981 108.379 40.4677 108.829 40.7238L120.672 47.4746C121.11 47.724 121.643 47.7429 122.084 47.4978L129.262 43.5019C129.49 43.3755 129.644 43.1394 129.645 42.88C129.645 42.6206 129.511 42.3872 129.285 42.2582L117.274 35.367C117.049 35.2386 116.891 34.9789 116.891 34.7209V30.4113C116.891 30.1539 117.051 29.9178 117.274 29.7894L121.006 27.6358C121.228 27.5075 121.501 27.5075 121.725 27.6358L125.459 29.7894C125.568 29.8523 125.659 29.9429 125.722 30.0521C125.785 30.1613 125.818 30.2852 125.818 30.4113V33.809C125.817 33.9351 125.85 34.059 125.913 34.1682C125.976 34.2775 126.067 34.3681 126.176 34.4309C126.4 34.5599 126.671 34.5606 126.895 34.4309L134.049 30.2683C134.493 30.0103 134.767 29.5377 134.767 29.0246V25.6991C134.767 25.4469 134.701 25.1992 134.575 24.9808C134.449 24.7625 134.267 24.5811 134.049 24.455L122.181 17.5638C121.963 17.4375 121.715 17.3714 121.463 17.3723L121.463 17.3716ZM85.7634 27.6608C85.8302 27.6605 85.896 27.6768 85.9549 27.7083L90.0463 30.0771C90.1574 30.1413 90.2379 30.26 90.2379 30.388V35.1256C90.2379 35.2543 90.158 35.3727 90.0463 35.4365L85.9549 37.8053C85.8435 37.8685 85.7075 37.8685 85.5958 37.8053L81.5044 35.4365C81.393 35.3723 81.3128 35.2536 81.3128 35.1256V30.3874C81.3128 30.259 81.3933 30.1413 81.5044 30.0764L85.5958 27.708C85.6516 27.6757 85.7009 27.6604 85.7634 27.6604V27.6601V27.6608Z" fill="#404137"/>
<path d="M50.0406 17.2994C49.7885 17.299 49.5407 17.3651 49.3223 17.491L37.3827 24.3582C36.9364 24.6156 36.665 25.1114 36.665 25.6262V39.4082C36.6644 39.6604 36.7304 39.9082 36.8564 40.1267C36.9825 40.3451 37.164 40.5263 37.3827 40.6519L49.3223 47.5431C49.5404 47.6696 49.788 47.7363 50.0401 47.7363C50.2922 47.7363 50.5399 47.6696 50.7579 47.5431L62.6976 40.6519C62.9161 40.526 63.0976 40.3447 63.2236 40.1263C63.3497 39.9079 63.4159 39.66 63.4155 39.4078V25.6259C63.4155 25.1104 63.1442 24.6149 62.6972 24.3579L50.7576 17.4907C50.5394 17.3642 50.2915 17.298 50.0393 17.2991L50.0406 17.2994ZM121.44 29.5982C121.392 29.5982 121.339 29.5982 121.296 29.6215L118.999 30.9617C118.956 30.9855 118.92 31.0201 118.895 31.062C118.87 31.104 118.856 31.1518 118.855 31.2008V33.8329C118.855 33.932 118.913 34.0225 118.999 34.0724L121.296 35.3883C121.335 35.4127 121.381 35.4257 121.427 35.4257C121.474 35.4257 121.519 35.4127 121.559 35.3883L123.856 34.0724C123.941 34.0235 123.999 33.932 123.999 33.8329V31.2008C123.999 31.1017 123.941 31.0112 123.856 30.9613L121.559 29.6212C121.516 29.5959 121.487 29.5979 121.439 29.5979L121.44 29.5982Z" fill="#83CD29"/>
</svg>
