<svg width="128" height="48" viewBox="0 0 128 48" fill="none" xmlns="http://www.w3.org/2000/svg">
<path fill-rule="evenodd" clip-rule="evenodd" d="M109.192 40.1032V45.7084H119.319C121.394 45.7084 124.955 44.191 125.079 39.9484V37.7806C125.079 34.1574 122.106 32.0206 119.319 32.0206H114.271V29.4194H124.274V23.7832H114.674C112.196 23.7832 108.883 25.8271 108.883 29.6361V31.5871C108.883 35.3961 112.165 37.3471 114.674 37.3471C121.641 37.3781 113.001 37.3471 119.443 37.3471V40.0723M54.9368 38.7406C54.9368 38.7406 60.3561 38.2761 60.3561 31.2774C60.3561 24.2787 53.791 23.6284 53.791 23.6284H41.9613V45.7084H47.9071V40.3819L53.0478 45.7084H61.8426L54.9368 38.7406ZM52.6452 34.2194H47.9071V29.1716H52.6761C52.6761 29.1716 54.0078 29.6671 54.0078 31.68C54.0078 33.6929 52.6452 34.2194 52.6452 34.2194ZM75.0349 23.7832H68.9961C64.6916 23.7832 63.2361 27.6852 63.2361 29.5432V45.7084H69.2749V41.8374H74.9419V45.7084H80.7949V29.5432C80.7949 24.8361 76.5213 23.7832 75.0349 23.7832ZM74.9419 35.5819H69.2439V30.2245C69.2439 30.2245 69.2439 29.0168 71.1329 29.0168H73.2078C74.88 29.0168 74.911 30.2245 74.911 30.2245V35.5819H74.9419Z" fill="#CC0000"/>
<path d="M89.8374 23.7832H83.551V45.7084H89.8374V23.7832Z" fill="#CC0000"/>
<path fill-rule="evenodd" clip-rule="evenodd" d="M98.6632 40.0413V23.7832H92.4077V40.0413V45.7084H98.6632H107.117V40.0413H98.6632Z" fill="#CC0000"/>
<path fill-rule="evenodd" clip-rule="evenodd" d="M4.64517 45.7084H29.1097C29.1097 45.7084 24.4336 24.3716 39.9174 15.7316C43.2929 14.0903 54.0387 7.9587 71.6284 20.9651C72.1858 20.5006 72.7123 20.129 72.7123 20.129C72.7123 20.129 56.609 4.05676 38.6787 5.85289C29.6671 6.65805 18.5807 14.8645 12.0774 25.7032C5.5742 36.5419 4.64517 45.7084 4.64517 45.7084Z" fill="#CC0000"/>
<path fill-rule="evenodd" clip-rule="evenodd" d="M4.64517 45.7084H29.1097C29.1097 45.7084 24.4336 24.3716 39.9174 15.7316C43.2929 14.0903 54.0387 7.9587 71.6284 20.9651C72.1858 20.5006 72.7123 20.129 72.7123 20.129C72.7123 20.129 56.609 4.05676 38.6787 5.85289C29.6671 6.65805 18.5807 14.8645 12.0774 25.7032C5.5742 36.5419 4.64517 45.7084 4.64517 45.7084Z" fill="#CC0000"/>
<path fill-rule="evenodd" clip-rule="evenodd" d="M4.64517 45.7084H29.1097C29.1097 45.7084 24.4336 24.3716 39.9174 15.7316C43.2929 14.0903 54.0387 7.9587 71.6284 20.9652C72.1858 20.5006 72.7123 20.129 72.7123 20.129C72.7123 20.129 56.609 4.05676 38.6787 5.85289C29.6361 6.65805 18.5497 14.8645 12.0465 25.7032C5.54324 36.5419 4.64517 45.7084 4.64517 45.7084ZM55.6181 7.58708L55.7419 5.51225C55.4632 5.35741 54.689 4.98579 52.7381 4.42838L52.6142 6.47225C53.6361 6.81289 54.6271 7.1845 55.6181 7.58708Z" fill="#CC0000"/>
<path fill-rule="evenodd" clip-rule="evenodd" d="M52.6761 14.1523L52.5523 16.1032C53.5742 16.1342 54.5961 16.2581 55.6181 16.4748L55.7419 14.5548C54.689 14.3381 53.6671 14.2142 52.6761 14.1523ZM41.2181 4.49032H41.5277L40.9084 2.60129C39.9484 2.60129 38.9574 2.66322 37.9355 2.78709L38.5239 4.61419C39.4219 4.52129 40.32 4.49032 41.2181 4.49032ZM42.7045 15.8864L43.4168 18.0232C44.3148 17.5897 45.2129 17.2181 46.111 16.9394L45.4297 14.8955C44.3768 15.2052 43.4787 15.5458 42.7045 15.8864ZM28.6452 7.74193L27.2516 5.60516C26.4774 6.00774 25.6723 6.44129 24.8361 6.93677L26.2606 9.10451C27.0658 8.60903 27.84 8.14451 28.6452 7.74193ZM34.9935 21.6774L36.48 23.9071C37.0065 23.1329 37.6258 22.4206 38.3071 21.7084L36.9135 19.6026C36.2013 20.2529 35.551 20.9652 34.9935 21.6774ZM30.5032 31.649L33.0116 33.631C33.1355 32.4232 33.3523 31.2155 33.6619 30.0077L31.4323 28.2426C31.0297 29.3884 30.751 30.5342 30.5032 31.649ZM16.9394 16.9394L14.7406 15.0194C13.9355 15.7935 13.1613 16.5677 12.449 17.3419L14.8335 19.3858C15.4839 18.5497 16.1961 17.7135 16.9394 16.9394ZM7.58709 30.7819L4.0258 29.4813C3.43742 30.8129 2.78709 32.3613 2.47742 33.1974L6.03871 34.4981C6.44129 33.4452 7.09161 31.9277 7.58709 30.7819ZM30.0387 39.5148C30.1006 41.1561 30.2555 42.4877 30.4103 43.4168L34.1264 44.7484C33.8477 43.5406 33.569 42.1781 33.3832 40.7226L30.0387 39.5148Z" fill="#CC0000"/>
</svg>
