<svg width="49" height="48" viewBox="0 0 49 48" fill="none" xmlns="http://www.w3.org/2000/svg">
<g clip-path="url(#clip0_21_56)">
<path fill-rule="evenodd" clip-rule="evenodd" d="M37.2912 31.6818L9.80988 48L45.393 45.5854L48.1336 9.70544L37.2912 31.6818Z" fill="url(#paint0_linear_21_56)"/>
<path fill-rule="evenodd" clip-rule="evenodd" d="M45.4513 45.5609L42.393 24.4519L34.0623 35.4522L45.4513 45.5609Z" fill="url(#paint1_linear_21_56)"/>
<path fill-rule="evenodd" clip-rule="evenodd" d="M45.4926 45.5609L23.0866 43.802L9.92896 47.9541L45.4926 45.5609Z" fill="url(#paint2_linear_21_56)"/>
<path fill-rule="evenodd" clip-rule="evenodd" d="M9.96049 47.9587L15.5578 29.6216L3.24078 32.2553L9.96049 47.9587Z" fill="url(#paint3_linear_21_56)"/>
<path fill-rule="evenodd" clip-rule="evenodd" d="M34.0601 35.5129L28.9098 15.3392L14.1707 29.1552L34.0601 35.5129Z" fill="url(#paint4_linear_21_56)"/>
<path fill-rule="evenodd" clip-rule="evenodd" d="M46.9651 15.6234L33.0325 4.24414L29.1528 16.7871L46.9651 15.6234Z" fill="url(#paint5_linear_21_56)"/>
<path fill-rule="evenodd" clip-rule="evenodd" d="M40.4494 0.187078L32.2551 4.71547L27.0853 0.126343L40.4494 0.187078Z" fill="url(#paint6_linear_21_56)"/>
<path fill-rule="evenodd" clip-rule="evenodd" d="M0 38.4063L3.43274 32.1458L0.655937 24.6875L0 38.4063Z" fill="url(#paint7_linear_21_56)"/>
<path fill-rule="evenodd" clip-rule="evenodd" d="M0.471313 24.4519L3.26512 32.3766L15.4048 29.653L29.2645 16.7723L33.1758 4.34862L27.0171 0L16.5464 3.91861C13.2475 6.98694 6.84605 13.058 6.61525 13.1722C6.38689 13.2888 2.38811 20.8466 0.471313 24.4519Z" fill="white"/>
<path fill-rule="evenodd" clip-rule="evenodd" d="M10.2812 10.2156C17.4309 3.12663 26.648 -1.06165 30.1852 2.50713C33.7202 6.07591 29.9714 14.7489 22.8217 21.8354C15.672 28.9219 6.56906 33.341 3.03429 29.7722C-0.502912 26.2059 3.13146 17.3021 10.2812 10.2156V10.2156Z" fill="url(#paint8_linear_21_56)"/>
<path fill-rule="evenodd" clip-rule="evenodd" d="M9.96051 47.9514L15.5141 29.556L33.9581 35.4813C27.2894 41.7346 19.8724 47.021 9.96051 47.9514Z" fill="url(#paint9_linear_21_56)"/>
<path fill-rule="evenodd" clip-rule="evenodd" d="M29.2888 16.7361L34.0237 35.491C39.5943 29.6338 44.594 23.3368 47.0426 15.5481L29.2888 16.7361V16.7361Z" fill="url(#paint10_linear_21_56)"/>
<path fill-rule="evenodd" clip-rule="evenodd" d="M46.9942 15.6429C48.8891 9.92408 49.3264 1.72001 40.3909 0.196777L33.059 4.24658L46.9942 15.6429V15.6429Z" fill="url(#paint11_linear_21_56)"/>
<path fill-rule="evenodd" clip-rule="evenodd" d="M0 38.3237C0.262375 47.7622 7.07197 47.9028 9.97267 47.9857L3.2724 32.3377L0 38.3237Z" fill="#9E1209"/>
<path fill-rule="evenodd" clip-rule="evenodd" d="M29.3152 16.7653C33.5958 19.3963 42.2229 24.6802 42.3978 24.7774C42.6696 24.9305 46.1172 18.9639 46.8995 15.5919L29.3152 16.7653V16.7653Z" fill="url(#paint12_radial_21_56)"/>
<path fill-rule="evenodd" clip-rule="evenodd" d="M15.5068 29.556L22.9311 43.8797C27.321 41.4989 30.7586 38.5982 33.9071 35.491L15.5068 29.556Z" fill="url(#paint13_radial_21_56)"/>
<path fill-rule="evenodd" clip-rule="evenodd" d="M3.24327 32.3571L2.19135 44.8831C4.17616 47.5943 6.9068 47.8299 9.77106 47.6186C7.69879 42.461 3.5591 32.1482 3.24327 32.3571V32.3571Z" fill="url(#paint14_linear_21_56)"/>
<path fill-rule="evenodd" clip-rule="evenodd" d="M33.0155 4.27818L47.7644 6.34802C46.9772 3.01246 44.56 0.860015 40.4397 0.187073L33.0155 4.27818Z" fill="url(#paint15_linear_21_56)"/>
</g>
<defs>
<linearGradient id="paint0_linear_21_56" x1="42.2894" y1="52.3653" x2="32.1351" y2="34.4375" gradientUnits="userSpaceOnUse">
<stop stop-color="#FB7655"/>
<stop offset="0.41" stop-color="#E42B1E"/>
<stop offset="0.99" stop-color="#990000"/>
<stop offset="1" stop-color="#990000"/>
</linearGradient>
<linearGradient id="paint1_linear_21_56" x1="47.3477" y1="37.3052" x2="34.2612" y2="28.5234" gradientUnits="userSpaceOnUse">
<stop stop-color="#871101"/>
<stop offset="0.99" stop-color="#911209"/>
<stop offset="1" stop-color="#911209"/>
</linearGradient>
<linearGradient id="paint2_linear_21_56" x1="36.8771" y1="52.9086" x2="23.791" y2="44.1271" gradientUnits="userSpaceOnUse">
<stop stop-color="#871101"/>
<stop offset="0.99" stop-color="#911209"/>
<stop offset="1" stop-color="#911209"/>
</linearGradient>
<linearGradient id="paint3_linear_21_56" x1="9.40083" y1="30.9482" x2="11.4295" y2="44.1327" gradientUnits="userSpaceOnUse">
<stop stop-color="white"/>
<stop offset="0.23" stop-color="#E57252"/>
<stop offset="0.46" stop-color="#DE3B20"/>
<stop offset="0.99" stop-color="#A60003"/>
<stop offset="1" stop-color="#A60003"/>
</linearGradient>
<linearGradient id="paint4_linear_21_56" x1="23.3544" y1="18.6372" x2="24.1019" y2="32.0928" gradientUnits="userSpaceOnUse">
<stop stop-color="white"/>
<stop offset="0.23" stop-color="#E4714E"/>
<stop offset="0.56" stop-color="#BE1A0D"/>
<stop offset="0.99" stop-color="#A80D00"/>
<stop offset="1" stop-color="#A80D00"/>
</linearGradient>
<linearGradient id="paint5_linear_21_56" x1="35.7372" y1="6.20005" x2="37.9749" y2="15.8436" gradientUnits="userSpaceOnUse">
<stop stop-color="white"/>
<stop offset="0.18" stop-color="#E46342"/>
<stop offset="0.4" stop-color="#C82410"/>
<stop offset="0.99" stop-color="#A80D00"/>
<stop offset="1" stop-color="#A80D00"/>
</linearGradient>
<linearGradient id="paint6_linear_21_56" x1="28.904" y1="2.8039" x2="38.5469" y2="-2.01755" gradientUnits="userSpaceOnUse">
<stop stop-color="white"/>
<stop offset="0.54" stop-color="#C81F11"/>
<stop offset="0.99" stop-color="#BF0905"/>
<stop offset="1" stop-color="#BF0905"/>
</linearGradient>
<linearGradient id="paint7_linear_21_56" x1="0.948266" y1="27.5869" x2="1.74193" y2="35.533" gradientUnits="userSpaceOnUse">
<stop stop-color="white"/>
<stop offset="0.31" stop-color="#DE4024"/>
<stop offset="0.99" stop-color="#BF190B"/>
<stop offset="1" stop-color="#BF190B"/>
</linearGradient>
<linearGradient id="paint8_linear_21_56" x1="-4.50794" y1="37.681" x2="32.8005" y2="-0.682495" gradientUnits="userSpaceOnUse">
<stop stop-color="#BD0012"/>
<stop offset="0.07" stop-color="white"/>
<stop offset="0.17" stop-color="white"/>
<stop offset="0.27" stop-color="#C82F1C"/>
<stop offset="0.33" stop-color="#820C01"/>
<stop offset="0.46" stop-color="#A31601"/>
<stop offset="0.72" stop-color="#B31301"/>
<stop offset="0.99" stop-color="#E82609"/>
<stop offset="1" stop-color="#E82609"/>
</linearGradient>
<linearGradient id="paint9_linear_21_56" x1="24.0692" y1="41.5507" x2="12.8315" y2="38.7772" gradientUnits="userSpaceOnUse">
<stop stop-color="#8C0C01"/>
<stop offset="0.54" stop-color="#990C00"/>
<stop offset="0.99" stop-color="#A80D0E"/>
<stop offset="1" stop-color="#A80D0E"/>
</linearGradient>
<linearGradient id="paint10_linear_21_56" x1="43.371" y1="28.0631" x2="33.3879" y2="19.1154" gradientUnits="userSpaceOnUse">
<stop stop-color="#7E110B"/>
<stop offset="0.99" stop-color="#9E0C00"/>
<stop offset="1" stop-color="#9E0C00"/>
</linearGradient>
<linearGradient id="paint11_linear_21_56" x1="47.0388" y1="11.6458" x2="42.066" y2="6.32949" gradientUnits="userSpaceOnUse">
<stop stop-color="#79130D"/>
<stop offset="0.99" stop-color="#9E120B"/>
<stop offset="1" stop-color="#9E120B"/>
</linearGradient>
<radialGradient id="paint12_radial_21_56" cx="0" cy="0" r="1" gradientUnits="userSpaceOnUse" gradientTransform="translate(34.9423 19.2865) scale(12.2339 12.2339)">
<stop stop-color="#A80D00"/>
<stop offset="0.99" stop-color="#7E0E08"/>
<stop offset="1" stop-color="#7E0E08"/>
</radialGradient>
<radialGradient id="paint13_radial_21_56" cx="0" cy="0" r="1" gradientUnits="userSpaceOnUse" gradientTransform="translate(18 35.4087) scale(16.2633 16.2633)">
<stop stop-color="#A30C00"/>
<stop offset="0.99" stop-color="#800E08"/>
<stop offset="1" stop-color="#800E08"/>
</radialGradient>
<linearGradient id="paint14_linear_21_56" x1="6.4792" y1="47.9407" x2="2.42668" y2="34.1918" gradientUnits="userSpaceOnUse">
<stop stop-color="#8B2114"/>
<stop offset="0.43" stop-color="#9E100A"/>
<stop offset="0.99" stop-color="#B3100C"/>
<stop offset="1" stop-color="#B3100C"/>
</linearGradient>
<linearGradient id="paint15_linear_21_56" x1="37.5685" y1="2.38031" x2="46.6539" y2="6.39075" gradientUnits="userSpaceOnUse">
<stop stop-color="#B31000"/>
<stop offset="0.44" stop-color="#910F08"/>
<stop offset="0.99" stop-color="#791C12"/>
<stop offset="1" stop-color="#791C12"/>
</linearGradient>
<clipPath id="clip0_21_56">
<rect width="48.1336" height="48" fill="white"/>
</clipPath>
</defs>
</svg>
