<svg width="41" height="48" viewBox="0 0 41 48" fill="none" xmlns="http://www.w3.org/2000/svg">
<g clip-path="url(#clip0_21_16)">
<path d="M38.3078 6.34577C33.8739 -0.0406741 25.0468 -1.91186 18.701 2.11526L7.51455 9.27458C4.4637 11.1864 2.34845 14.3186 1.73828 17.8576C1.20947 20.8271 1.65693 23.878 3.08065 26.522C2.10438 27.9864 1.45354 29.6136 1.16879 31.322C0.517942 34.9424 1.37218 38.6847 3.48743 41.6542C7.96201 48.0407 16.7485 49.9119 23.0942 45.8847L34.2807 38.7661C37.3315 36.8542 39.4468 33.722 40.0569 30.1831C40.5857 27.2136 40.1383 24.1627 38.7146 21.5186C39.6908 20.0542 40.3417 18.4271 40.6264 16.7186C41.3179 13.0576 40.4637 9.31526 38.3078 6.34577Z" fill="#FF3E00"/>
<path d="M17.6027 42.2644C13.9824 43.2 10.1993 41.7763 8.08404 38.7254C6.78235 36.9356 6.29421 34.6983 6.66032 32.5017C6.74167 32.1356 6.82303 31.8102 6.90438 31.4441L7.10777 30.7932L7.67726 31.2C9.01964 32.1763 10.484 32.9085 12.0705 33.3966L12.4773 33.5187L12.4366 33.9254C12.3959 34.4949 12.5586 35.1051 12.884 35.5932C13.5349 36.5288 14.6739 36.9763 15.7722 36.6915C16.0162 36.6102 16.2603 36.5288 16.4637 36.4068L27.6095 29.2881C28.179 28.922 28.5451 28.3932 28.6671 27.7424C28.7891 27.0915 28.6264 26.4 28.2603 25.8712C27.6095 24.9356 26.4705 24.5288 25.3722 24.8136C25.1281 24.8949 24.884 24.9763 24.6807 25.0983L20.4095 27.8237C19.7179 28.2712 18.9451 28.5966 18.1315 28.8C14.5112 29.7356 10.7281 28.3119 8.61286 25.261C7.35184 23.4712 6.82303 21.2339 7.22981 19.0373C7.59591 16.922 8.8976 15.0102 10.7281 13.8712L21.9146 6.75255C22.6061 6.30509 23.379 5.97967 24.1925 5.7356C27.8129 4.80001 31.5959 6.22374 33.7112 9.27458C35.0129 11.0644 35.501 13.3017 35.1349 15.4983C35.0535 15.8644 34.9722 16.1898 34.8501 16.5559L34.6468 17.2068L34.0773 16.8C32.7349 15.8237 31.2705 15.0915 29.684 14.6034L29.2773 14.4814L29.3179 14.0746C29.3586 13.5051 29.1959 12.8949 28.8705 12.4068C28.2196 11.4712 27.0807 11.0644 25.9824 11.3492C25.7383 11.4305 25.4942 11.5119 25.2908 11.6339L14.1451 18.7526C13.5756 19.1187 13.2095 19.6475 13.0874 20.2983C12.9654 20.9492 13.1281 21.6407 13.4942 22.1695C14.1451 23.1051 15.284 23.5119 16.3824 23.2271C16.6264 23.1458 16.8705 23.0644 17.0739 22.9424L21.3451 20.217C22.0366 19.7695 22.8095 19.4441 23.623 19.2C27.2434 18.2644 31.0264 19.6881 33.1417 22.739C34.4434 24.5288 34.9315 26.7661 34.5654 28.9627C34.1993 31.078 32.8976 32.9898 31.0671 34.1288L19.8807 41.2475C19.1891 41.6949 18.4162 42.0203 17.6027 42.2644Z" fill="white"/>
</g>
<defs>
<clipPath id="clip0_21_16">
<rect width="39.9051" height="48" fill="white" transform="translate(0.965393)"/>
</clipPath>
</defs>
</svg>
